<mxfile host="65bd71144e" scale="1.2" border="10">
    <diagram id="hKsF3VO6nWa31StS4_ZH" name="v-model">
        <mxGraphModel dx="1142" dy="695" grid="1" gridSize="10" guides="1" tooltips="1" connect="1" arrows="1" fold="1" page="1" pageScale="1" pageWidth="827" pageHeight="1169" math="0" shadow="0">
            <root>
                <mxCell id="0"/>
                <mxCell id="1" parent="0"/>
                <mxCell id="2" value="Input..." style="html=1;shadow=0;dashed=0;shape=mxgraph.bootstrap.rrect;rSize=5;strokeColor=#CED4DA;strokeWidth=1;fillColor=#E9ECEF;fontColor=#505050;whiteSpace=wrap;align=left;verticalAlign=middle;spacingLeft=10;fontSize=14;" vertex="1" parent="1">
                    <mxGeometry x="320" y="427" width="160" height="40" as="geometry"/>
                </mxCell>
                <mxCell id="4" value="&lt;font style=&quot;font-size: 14px;&quot;&gt;myRef&lt;/font&gt;" style="rounded=0;whiteSpace=wrap;html=1;" vertex="1" parent="1">
                    <mxGeometry x="320" y="517" width="160" height="40" as="geometry"/>
                </mxCell>
                <mxCell id="9" value="" style="html=1;shadow=0;dashed=0;align=center;verticalAlign=middle;shape=mxgraph.arrows2.uTurnArrow;dy=11;arrowHead=43;dx2=25;flipH=1;flipV=1;" vertex="1" parent="1">
                    <mxGeometry x="565" y="437" width="70" height="120" as="geometry"/>
                </mxCell>
                <mxCell id="10" value="" style="html=1;shadow=0;dashed=0;align=center;verticalAlign=middle;shape=mxgraph.arrows2.uTurnArrow;dy=11;arrowHead=43;dx2=25;flipH=0;flipV=0;" vertex="1" parent="1">
                    <mxGeometry x="153" y="427" width="80" height="120" as="geometry"/>
                </mxCell>
                <mxCell id="11" value="&lt;font color=&quot;#6600cc&quot;&gt;v-model&lt;/font&gt; &lt;br&gt;two-way binding" style="text;strokeColor=none;fillColor=none;html=1;fontSize=28;fontStyle=1;verticalAlign=middle;align=center;fontColor=#333333;" vertex="1" parent="1">
                    <mxGeometry x="285" y="317" width="230" height="70" as="geometry"/>
                </mxCell>
                <mxCell id="12" value="&lt;font color=&quot;#4d4d4d&quot;&gt;User changes&lt;br&gt;input value&lt;br&gt;&lt;/font&gt;" style="html=1;verticalLabelPosition=bottom;align=center;labelBackgroundColor=#ffffff;verticalAlign=top;strokeWidth=2;strokeColor=#4D4D4D;shadow=0;dashed=0;shape=mxgraph.ios7.icons.flash;fontColor=#6600CC;" vertex="1" parent="1">
                    <mxGeometry x="514" y="427" width="18" height="30" as="geometry"/>
                </mxCell>
                <mxCell id="13" value="&lt;font color=&quot;#4d4d4d&quot;&gt;Component&lt;br&gt;changes ref value&lt;br&gt;&lt;/font&gt;" style="html=1;verticalLabelPosition=bottom;align=center;labelBackgroundColor=#ffffff;verticalAlign=top;strokeWidth=2;strokeColor=#4D4D4D;shadow=0;dashed=0;shape=mxgraph.ios7.icons.flash;fontColor=#6600CC;" vertex="1" parent="1">
                    <mxGeometry x="262" y="515" width="18" height="30" as="geometry"/>
                </mxCell>
                <mxCell id="16" value="Ref update" style="sketch=0;pointerEvents=1;shadow=0;dashed=0;html=1;strokeColor=none;labelPosition=center;verticalLabelPosition=bottom;verticalAlign=top;align=center;fillColor=#505050;shape=mxgraph.mscae.intune.update;fontSize=12;fontColor=#4D4D4D;strokeWidth=1;" vertex="1" parent="1">
                    <mxGeometry x="507" y="526" width="27" height="27" as="geometry"/>
                </mxCell>
                <mxCell id="18" value="Input update" style="sketch=0;pointerEvents=1;shadow=0;dashed=0;html=1;strokeColor=none;labelPosition=center;verticalLabelPosition=bottom;verticalAlign=top;align=center;fillColor=#505050;shape=mxgraph.mscae.intune.update;fontSize=12;fontColor=#4D4D4D;strokeWidth=1;" vertex="1" parent="1">
                    <mxGeometry x="258" y="424" width="27" height="27" as="geometry"/>
                </mxCell>
            </root>
        </mxGraphModel>
    </diagram>
    <diagram name="v-bind" id="5MuhysqDjt83WdsPyjfo">
        <mxGraphModel dx="983" dy="598" grid="1" gridSize="10" guides="1" tooltips="1" connect="1" arrows="1" fold="1" page="1" pageScale="1" pageWidth="827" pageHeight="1169" math="0" shadow="0">
            <root>
                <mxCell id="PJbt05CHmS6hWyOmj68j-0"/>
                <mxCell id="PJbt05CHmS6hWyOmj68j-1" parent="PJbt05CHmS6hWyOmj68j-0"/>
                <mxCell id="PJbt05CHmS6hWyOmj68j-2" value="Input..." style="html=1;shadow=0;dashed=0;shape=mxgraph.bootstrap.rrect;rSize=5;strokeColor=#CED4DA;strokeWidth=1;fillColor=#E9ECEF;fontColor=#505050;whiteSpace=wrap;align=left;verticalAlign=middle;spacingLeft=10;fontSize=14;" vertex="1" parent="PJbt05CHmS6hWyOmj68j-1">
                    <mxGeometry x="320" y="427" width="160" height="40" as="geometry"/>
                </mxCell>
                <mxCell id="PJbt05CHmS6hWyOmj68j-3" value="&lt;font style=&quot;font-size: 14px;&quot;&gt;myRef&lt;/font&gt;" style="rounded=0;whiteSpace=wrap;html=1;" vertex="1" parent="PJbt05CHmS6hWyOmj68j-1">
                    <mxGeometry x="320" y="517" width="160" height="40" as="geometry"/>
                </mxCell>
                <mxCell id="PJbt05CHmS6hWyOmj68j-5" value="" style="html=1;shadow=0;dashed=0;align=center;verticalAlign=middle;shape=mxgraph.arrows2.uTurnArrow;dy=11;arrowHead=43;dx2=25;flipH=0;flipV=0;" vertex="1" parent="PJbt05CHmS6hWyOmj68j-1">
                    <mxGeometry x="153" y="427" width="80" height="120" as="geometry"/>
                </mxCell>
                <mxCell id="PJbt05CHmS6hWyOmj68j-6" value="&lt;font color=&quot;#6600cc&quot;&gt;v-bind&lt;/font&gt;&lt;br&gt;one-way binding" style="text;strokeColor=none;fillColor=none;html=1;fontSize=28;fontStyle=1;verticalAlign=middle;align=center;fontColor=#333333;" vertex="1" parent="PJbt05CHmS6hWyOmj68j-1">
                    <mxGeometry x="184" y="317" width="230" height="70" as="geometry"/>
                </mxCell>
                <mxCell id="PJbt05CHmS6hWyOmj68j-8" value="&lt;font color=&quot;#4d4d4d&quot;&gt;Component&lt;br&gt;changes ref value&lt;br&gt;&lt;/font&gt;" style="html=1;verticalLabelPosition=bottom;align=center;labelBackgroundColor=#ffffff;verticalAlign=top;strokeWidth=2;strokeColor=#4D4D4D;shadow=0;dashed=0;shape=mxgraph.ios7.icons.flash;fontColor=#6600CC;" vertex="1" parent="PJbt05CHmS6hWyOmj68j-1">
                    <mxGeometry x="262" y="515" width="18" height="30" as="geometry"/>
                </mxCell>
                <mxCell id="PJbt05CHmS6hWyOmj68j-10" value="Input update" style="sketch=0;pointerEvents=1;shadow=0;dashed=0;html=1;strokeColor=none;labelPosition=center;verticalLabelPosition=bottom;verticalAlign=top;align=center;fillColor=#505050;shape=mxgraph.mscae.intune.update;fontSize=12;fontColor=#4D4D4D;strokeWidth=1;" vertex="1" parent="PJbt05CHmS6hWyOmj68j-1">
                    <mxGeometry x="258" y="424" width="27" height="27" as="geometry"/>
                </mxCell>
            </root>
        </mxGraphModel>
    </diagram>
</mxfile>